<svg width="456" height="131" viewBox="0 0 456 131" fill="none" xmlns="http://www.w3.org/2000/svg">
<g opacity="0.44">
<mask id="mask0_57_82" style="mask-type:luminance" maskUnits="userSpaceOnUse" x="9" y="0" width="135" height="131">
<path d="M143.897 0.371582H9.21942V130.314H143.897V0.371582Z" fill="white"/>
</mask>
<g mask="url(#mask0_57_82)">
<path d="M140.636 0.371451H140.565C136.81 0.371451 132.051 2.24672 130.641 4.79425C118.936 30.9065 107.195 57.0187 95.4905 83.1309C88.6332 98.4515 81.7583 113.754 74.7071 129.517L74.4603 130.066L74.3369 130.313H87.2053L90.5018 122.706L90.6957 122.246C108.235 83.3255 125.687 44.4049 143.174 5.48421C143.174 5.48421 143.174 5.48421 143.209 5.41345C143.509 4.86502 145.642 0.530672 140.653 0.35376" fill="#F7F7F7"/>
<path d="M61.8914 92.9143C61.8914 89.2699 58.9476 86.3154 55.3162 86.3154C51.6848 86.3154 48.741 89.2699 48.741 92.9143C48.741 96.5586 51.6848 99.5131 55.3162 99.5131C58.9476 99.5131 61.8914 96.5586 61.8914 92.9143Z" fill="#F7F7F7"/>
<path d="M118.266 19.7789C118.16 20.0442 118.054 20.2919 117.984 20.4688C117.913 20.575 117.878 20.6988 117.825 20.8227C117.825 20.8757 117.79 20.8934 117.79 20.8934C101.643 57.4611 85.1076 93.8697 68.6607 130.314H57.2907C65.0646 112.994 72.627 96.0987 80.207 79.2213C88.5803 60.5394 97.0065 41.8752 105.362 23.211C106.49 20.4334 106.878 18.452 106.896 17.019C106.649 14.0646 103.846 13.3039 102.03 13.1447C101.837 13.1447 101.731 13.1447 101.731 13.1447C81.5115 12.9147 61.2922 13.0031 41.073 13.0031C39.9448 13.0031 38.7637 12.9324 37.6532 13.127C34.0218 13.7462 32.4705 15.8691 34.4625 19.1774C39.7509 27.9345 45.2861 36.5501 50.9975 45.6788C53.8709 43.4143 56.2154 41.5568 58.5952 39.6992C61.2217 37.6647 63.8659 35.6125 66.5101 33.5603C66.6864 33.7195 66.8627 33.8611 67.039 34.0026C65.523 36.4086 63.9893 38.8146 62.4733 41.2206C62.4733 41.2206 62.4028 41.3268 62.3852 41.3798C62.015 41.999 61.6096 42.6182 61.2041 43.2374C61.1336 43.3436 61.0807 43.4674 60.9926 43.5912C59.5647 46.0857 57.6433 50.2078 57.7843 54.0467V54.0821C57.7314 54.2944 57.6256 55.3382 58.5775 57.6558C58.983 58.6288 59.5647 59.8495 60.4461 61.3178C61.1865 62.6093 62.1736 64.113 63.4076 65.8291C63.5663 66.0414 63.7249 66.2537 63.8836 66.4837L65.7169 69.0312L66.1576 69.6327C66.281 69.8627 67.7265 72.2333 66.6511 74.7985C66.6511 74.7985 66.6511 74.7985 66.6511 74.8339C65.5406 76.4615 64.0246 77.2399 62.5438 77.5407C59.6352 77.8591 57.5022 76.0723 56.3212 74.7455C55.951 74.3209 55.6689 73.9317 55.5103 73.7017V73.7724C55.5103 73.7724 55.4574 73.6663 55.4398 73.5955C55.3516 73.4894 55.334 73.4186 55.334 73.4186C53.5007 70.305 51.5792 67.0321 48.935 62.5385C48.8645 62.7331 48.8116 62.91 48.7411 63.087C48.1594 64.7322 46.3437 70.1104 44.0874 78.496L42.9063 83.0426L42.6947 83.8918C41.1259 90.1191 39.4336 97.5494 37.8647 106.006C31.6773 95.108 32.8231 83.9803 34.2686 72.7994C35.0795 69.5266 35.8727 66.2537 36.9833 61.7778C30.7254 65.0861 25.578 67.8105 20.4306 70.535C15.248 72.6107 11.5226 71.0126 9.25452 65.7406C20.0428 61.4063 30.884 57.0719 42.3598 52.4722C35.6259 41.7867 29.6148 32.2866 23.6566 22.751C20.5364 17.7267 16.341 12.4901 19.8842 6.40431C23.1806 0.690053 29.6501 1.16772 35.3439 1.15002C59.4942 1.06157 83.6269 1.00849 107.777 1.23848C110.933 1.3977 116.485 2.17611 118.283 5.53744C118.283 5.53744 119.288 7.0412 119.747 9.99563C120.187 14.1708 118.971 17.9744 118.248 19.7966" fill="#F7F7F7"/>
</g>
</g>
<path d="M131.381 0.0176912H131.311C127.556 0.0176912 122.796 1.89296 121.386 4.44049C109.681 30.5527 97.9409 56.6649 86.2359 82.7772C79.3787 98.0977 72.5038 113.401 65.4526 129.164L65.2058 129.712L65.0824 129.96H77.9508L81.2472 122.352L81.4411 121.892C98.981 82.9718 116.433 44.0511 133.92 5.13045C133.92 5.13045 133.92 5.13045 133.955 5.05969C134.254 4.51126 136.387 0.176912 131.399 0" fill="#F7F7F7"/>
<path d="M52.6371 92.5604C52.6371 88.916 49.6932 85.9616 46.0619 85.9616C42.4305 85.9616 39.4866 88.916 39.4866 92.5604C39.4866 96.2048 42.4305 99.1593 46.0619 99.1593C49.6932 99.1593 52.6371 96.2048 52.6371 92.5604Z" fill="#F7F7F7"/>
<path d="M109.011 19.4426C108.906 19.7079 108.8 19.9556 108.729 20.1325C108.659 20.2387 108.623 20.3625 108.571 20.4863C108.571 20.5394 108.535 20.5571 108.535 20.5571C92.3881 57.1248 75.8531 93.5334 59.4062 129.977H48.0362C55.8101 112.658 63.3725 95.7624 70.9525 78.885C79.3258 60.2031 87.752 41.5389 96.1076 22.8747C97.2358 20.0971 97.6236 18.1157 97.6412 16.6827C97.3945 13.7283 94.5916 12.9676 92.7759 12.8084C92.582 12.8084 92.4763 12.8084 92.4763 12.8084C72.257 12.5784 52.0377 12.6668 31.8185 12.6668C30.6903 12.6668 29.5092 12.5961 28.3986 12.7907C24.7673 13.4099 23.216 15.5328 25.208 18.8411C30.4964 27.5982 36.0315 36.2138 41.743 45.3425C44.6164 43.078 46.9609 41.2204 49.3406 39.3629C51.9672 37.3284 54.6114 35.2762 57.2556 33.224C57.4319 33.3832 57.6082 33.5248 57.7844 33.6663C56.2684 36.0723 54.7348 38.4783 53.2188 40.8843C53.2188 40.8843 53.1483 40.9905 53.1307 41.0435C52.7605 41.6627 52.355 42.2819 51.9496 42.9011C51.8791 43.0073 51.8262 43.1311 51.7381 43.2549C50.3102 45.7494 48.3887 49.8714 48.5298 53.7104V53.7458C48.4769 53.9581 48.3711 55.0019 49.323 57.3194C49.7285 58.2925 50.3102 59.5131 51.1916 60.9815C51.932 62.273 52.9191 63.7767 54.1531 65.4928C54.3117 65.7051 54.4704 65.9174 54.629 66.1474L56.4623 68.6949L56.903 69.2964C57.0264 69.5264 58.4719 71.897 57.3966 74.4622C57.3966 74.4622 57.3966 74.4622 57.3966 74.4976C56.2861 76.1252 54.7701 76.9036 53.2893 77.2044C50.3807 77.5228 48.2477 75.736 47.0666 74.4091C46.6965 73.9846 46.4144 73.5954 46.2558 73.3654V73.4361C46.2558 73.4361 46.2029 73.33 46.1852 73.2592C46.0971 73.1531 46.0795 73.0823 46.0795 73.0823C44.2462 69.9687 42.3247 66.6958 39.6805 62.2022C39.61 62.3968 39.5571 62.5737 39.4866 62.7506C38.9049 64.3959 37.0892 69.774 34.8328 78.1597L33.6518 82.7063L33.4402 83.5555C31.8713 89.7828 30.1791 97.2131 28.6102 105.67C22.4228 94.7717 23.5686 83.644 25.0141 72.4631C25.825 69.1902 26.6182 65.9174 27.7288 61.4415C21.4708 64.7497 16.3235 67.4742 11.1761 70.1986C5.99351 72.2744 2.26813 70.6763 0 65.4043C10.7883 61.07 21.6295 56.7356 33.1053 52.1359C26.3714 41.4504 20.3603 31.9502 14.402 22.4147C11.2819 17.3904 7.08644 12.1538 10.6297 6.068C13.9261 0.353741 20.3955 0.831403 26.0894 0.796021C50.2397 0.707565 74.3723 0.654491 98.5226 0.884477C101.678 1.0437 107.231 1.82211 109.029 5.18344C109.029 5.18344 110.034 6.68719 110.492 9.64163C110.933 13.8168 109.716 17.6204 108.994 19.4426" fill="#F7F7F7"/>
<path d="M109.011 19.4426C108.906 19.7079 108.8 19.9556 108.729 20.1325C108.659 20.2387 108.623 20.3625 108.571 20.4863C108.571 20.5394 108.535 20.5571 108.535 20.5571C92.3881 57.1248 75.8531 93.5334 59.4062 129.977H48.0362C55.8101 112.658 63.3725 95.7624 70.9525 78.885C79.3258 60.2031 87.752 41.5389 96.1076 22.8747C97.2358 20.0971 97.6236 18.1157 97.6412 16.6827C97.3945 13.7283 94.5916 12.9676 92.7759 12.8084C92.582 12.8084 92.4763 12.8084 92.4763 12.8084C72.257 12.5784 52.0377 12.6668 31.8185 12.6668C30.6903 12.6668 29.5092 12.5961 28.3986 12.7907C24.7673 13.4099 23.216 15.5328 25.208 18.8411C30.4964 27.5982 36.0315 36.2138 41.743 45.3425C44.6164 43.078 46.9609 41.2204 49.3406 39.3629C51.9672 37.3284 54.6114 35.2762 57.2556 33.224C57.4319 33.3832 57.6082 33.5248 57.7844 33.6663C56.2684 36.0723 54.7348 38.4783 53.2188 40.8843C53.2188 40.8843 53.1483 40.9905 53.1307 41.0435C52.7605 41.6627 52.355 42.2819 51.9496 42.9011C51.8791 43.0073 51.8262 43.1311 51.7381 43.2549C50.3102 45.7494 48.3887 49.8714 48.5298 53.7104V53.7458C48.4769 53.9581 48.3711 55.0019 49.323 57.3194C49.7285 58.2925 50.3102 59.5131 51.1916 60.9815C51.932 62.273 52.9191 63.7767 54.1531 65.4928C54.3117 65.7051 54.4704 65.9174 54.629 66.1474L56.4623 68.6949L56.903 69.2964C57.0264 69.5264 58.4719 71.897 57.3966 74.4622C57.3966 74.4622 57.3966 74.4622 57.3966 74.4976C56.2861 76.1252 54.7701 76.9036 53.2893 77.2044C50.3807 77.5228 48.2477 75.736 47.0666 74.4091C46.6965 73.9846 46.4144 73.5954 46.2558 73.3654V73.4361C46.2558 73.4361 46.2029 73.33 46.1852 73.2592C46.0971 73.1531 46.0795 73.0823 46.0795 73.0823C44.2462 69.9687 42.3247 66.6958 39.6805 62.2022C39.61 62.3968 39.5571 62.5737 39.4866 62.7506C38.9049 64.3959 37.0892 69.774 34.8328 78.1597L33.6518 82.7063L33.4402 83.5555C31.8713 89.7828 30.1791 97.2131 28.6102 105.67C22.4228 94.7717 23.5686 83.644 25.0141 72.4631C25.825 69.1902 26.6182 65.9174 27.7288 61.4415C21.4708 64.7497 16.3235 67.4742 11.1761 70.1986C5.99351 72.2744 2.26813 70.6763 0 65.4043C10.7883 61.07 21.6295 56.7356 33.1053 52.1359C26.3714 41.4504 20.3603 31.9502 14.402 22.4147C11.2819 17.3904 7.08644 12.1538 10.6297 6.068C13.9261 0.353741 20.3955 0.831403 26.0894 0.796021C50.2397 0.707565 74.3723 0.654491 98.5226 0.884477C101.678 1.0437 107.231 1.82211 109.029 5.18344C109.029 5.18344 110.034 6.68719 110.492 9.64163C110.933 13.8168 109.716 17.6204 108.994 19.4426" fill="#F7F7F7"/>
<path d="M156.977 57.7795H140.936V66.979H154.844V70.5172H140.936V83.9625H137.022V54.259H156.977V57.7795Z" fill="#F7F7F7"/>
<path d="M186.521 83.9625H164.451V54.259H185.834V57.7795H168.365V66.8551H184.706V70.3934H168.365V80.442H186.521V83.9625Z" fill="#F7F7F7"/>
<path d="M217.441 83.9625H213.51V69.9865H198.138V83.9625H194.225V54.259H198.138V66.4659H213.51V54.259H217.441V83.9625Z" fill="#F7F7F7"/>
<path d="M250.916 83.9625H246.686L243.9 76.0368C243.407 74.6392 242.578 73.4893 241.415 72.5871C240.251 71.7025 238.929 71.2425 237.413 71.2425H230.168V83.9448H226.255V54.2413H239.352C241.644 54.2413 243.513 54.4713 244.958 54.9135C246.404 55.3558 247.602 56.2935 248.501 57.7264C249.418 59.1594 249.876 60.7693 249.876 62.5738C249.876 64.626 249.277 66.3421 248.096 67.722C246.915 69.1019 245.293 70.0041 243.231 70.411V70.4995C245.293 71.1541 246.862 72.9586 247.937 75.8599L250.899 83.9448L250.916 83.9625ZM230.168 67.7397H238.912C241.344 67.7397 243.107 67.3505 244.218 66.5897C245.311 65.829 245.857 64.4845 245.857 62.6092C245.857 59.2302 243.742 57.5495 239.529 57.5495H230.186V67.7574L230.168 67.7397Z" fill="#F7F7F7"/>
<path d="M286.119 83.9625H282.4V58.6995L273.956 83.9625H270.448L262.004 58.6995V83.9625H258.302V54.259H264.173L272.193 79.009L280.232 54.259H286.119V83.9625Z" fill="#F7F7F7"/>
<path d="M319.225 83.9625H314.8L311.363 74.9223H298.97L295.709 83.9625H291.566L302.936 54.259H307.15L319.225 83.9625ZM310.217 71.8087L305.017 58.0272L300.045 71.8087H310.217Z" fill="#F7F7F7"/>
<path d="M347.923 83.9625H343.904L328.391 60.5217V83.9625H324.689V54.259H328.673L344.186 77.6998V54.259H347.923V83.9625Z" fill="#F7F7F7"/>
<path d="M379.953 83.9625H375.934L360.439 60.5217V83.9625H356.719V54.259H360.721L376.216 77.6998V54.259H379.953V83.9625Z" fill="#F7F7F7"/>
<path d="M413.094 84.4579C408.916 84.4579 405.796 83.5202 403.733 81.645C401.671 79.7697 400.578 77.3637 400.472 74.4093H404.244C404.438 76.6207 405.355 78.266 406.994 79.3274C408.634 80.3889 410.608 80.9196 412.917 80.9196C415.103 80.9196 416.884 80.4597 418.223 79.5574C419.563 78.6552 420.233 77.4168 420.233 75.8776C420.233 74.25 419.545 73.047 418.153 72.3217C416.76 71.5787 414.38 70.8533 410.996 70.128C407.611 69.4027 405.179 68.3943 403.715 67.1205C402.235 65.8467 401.512 64.1307 401.512 61.99C401.512 59.584 402.464 57.6203 404.385 56.0812C406.307 54.542 408.845 53.7813 412.018 53.7813C415.35 53.7813 418.047 54.5597 420.092 56.1166C422.137 57.6734 423.212 59.8671 423.335 62.6977H419.528C419.14 59.1064 416.69 57.3196 412.177 57.3196C409.991 57.3196 408.299 57.7265 407.118 58.5579C405.919 59.3894 405.32 60.4686 405.32 61.8308C405.32 63.0692 405.796 64.0068 406.765 64.626C407.717 65.2452 409.515 65.8467 412.159 66.4305C414.786 67.0143 416.884 67.5805 418.417 68.1466C419.968 68.7127 421.291 69.5973 422.401 70.7826C423.494 71.9856 424.058 73.5778 424.058 75.5946C424.058 78.1421 423.053 80.2651 421.026 81.9634C418.999 83.6441 416.355 84.4933 413.111 84.4933" fill="#F7F7F7"/>
<path d="M456 83.9625H451.575L448.138 74.9223H435.745L432.484 83.9625H428.342L439.712 54.259H443.925L456 83.9625ZM446.992 71.8087L441.792 58.0272L436.821 71.8087H446.992Z" fill="#F7F7F7"/>
</svg>
