<svg width="111" height="111" viewBox="0 0 111 111" fill="none" xmlns="http://www.w3.org/2000/svg">
<g clip-path="url(#clip0_21_651)">
<path d="M55.5 4.93333C27.6179 4.93333 4.93333 27.6179 4.93333 55.5C4.93333 83.3821 27.6179 106.067 55.5 106.067C83.3821 106.067 106.067 83.3821 106.067 55.5C106.067 27.6179 83.3821 4.93333 55.5 4.93333ZM55.5 0C86.1527 0 111 24.8473 111 55.5C111 86.1527 86.1527 111 55.5 111C24.8473 111 0 86.1527 0 55.5C0 24.8473 24.8473 0 55.5 0Z" fill="white"/>
<circle cx="58" cy="55" r="53" fill="white"/>
<path d="M32.5711 56.6364C32.5358 56.5681 32.494 56.4999 32.4654 56.4294C32.4345 56.3523 32.4147 56.2708 32.3905 56.1915C32.3707 56.1188 32.3442 56.0462 32.3288 55.9735C32.3134 55.8942 32.309 55.8149 32.3024 55.7334C32.2936 55.6563 32.2826 55.5793 32.2826 55.5022C32.2826 55.4251 32.2936 55.348 32.3024 55.2709C32.3112 55.1916 32.3134 55.1102 32.3288 55.0309C32.3442 54.956 32.3685 54.8855 32.3905 54.8128C32.4147 54.7335 32.4345 54.6521 32.4654 54.575C32.494 54.5045 32.5336 54.4362 32.5711 54.368C32.6085 54.2931 32.6438 54.2182 32.69 54.1477C32.7341 54.0794 32.7913 54.0178 32.8442 53.9517C32.8904 53.8966 32.9279 53.835 32.9785 53.7821L62.9375 22.9488C63.8889 21.9731 65.4482 21.9489 66.4261 22.8981C67.4017 23.8474 67.426 25.4088 66.4767 26.3867L38.1872 55.5022L66.4767 84.6176C67.426 85.5933 67.4039 87.1548 66.4261 88.1062C65.9482 88.5731 65.3271 88.8044 64.7082 88.8044C64.0893 88.8044 63.422 88.5533 62.9375 88.0578L32.9785 57.2244C32.9279 57.1716 32.8904 57.1121 32.8442 57.0549C32.7913 56.991 32.7341 56.9293 32.69 56.8588C32.6438 56.7884 32.6085 56.7135 32.5711 56.6386V56.6364Z" fill="#06527D"/>
</g>
<defs>
<clipPath id="clip0_21_651">
<rect width="111" height="111" fill="white" transform="matrix(-1 0 0 1 111 0)"/>
</clipPath>
</defs>
</svg>
