<svg width="37" height="37" viewBox="0 0 37 37" fill="none" xmlns="http://www.w3.org/2000/svg">
<path d="M36.4342 0.600619C35.894 0.0609287 35.0183 0.0609287 34.4775 0.600619L18.5175 16.5451L2.55757 0.600619C2.30131 0.325941 1.94459 0.167061 1.56921 0.160622C1.19319 0.153546 0.831309 0.300211 0.565398 0.56523C0.300113 0.8309 0.153314 1.19241 0.160402 1.56807C0.16684 1.94308 0.325877 2.29946 0.600822 2.55548L16.5608 18.5L0.600822 34.4445C0.325877 34.7005 0.166847 35.0569 0.160402 35.4319C0.153319 35.8076 0.300123 36.1691 0.565398 36.4348C0.831326 36.6998 1.19319 36.8465 1.56921 36.8394C1.94459 36.8329 2.30131 36.6741 2.55757 36.3994L18.5175 20.4549L34.4775 36.3994C35.0229 36.9076 35.8734 36.8921 36.4001 36.3653C36.9275 35.8391 36.9429 34.9893 36.4342 34.4445L20.4743 18.5L36.4342 2.55547C36.9745 2.01514 36.9745 1.14029 36.4342 0.600619Z" fill="#06527D"/>
</svg>
