<svg width="31" height="24" viewBox="0 0 31 24" fill="none" xmlns="http://www.w3.org/2000/svg">
<path d="M16.1769 21.8741C16.1769 22.3681 16.3696 22.8421 16.7124 23.1915L16.7107 23.1909C17.0537 23.5404 17.5192 23.7368 18.0044 23.7368C18.4897 23.7368 18.9553 23.5404 19.2983 23.1909L30.1053 11.8958L19.3002 0.598762C18.8381 0.127894 18.1645 -0.0561032 17.5331 0.116056C16.9018 0.288423 16.4087 0.790568 16.2393 1.43358C16.07 2.07644 16.2505 2.76275 16.7124 3.23343L23.3304 9.97409H2.72423C2.07058 9.97409 1.46669 10.3293 1.13988 10.9057C0.813073 11.4822 0.813073 12.1926 1.13988 12.769C1.46673 13.3455 2.07062 13.7007 2.72423 13.7007H23.4446L16.7124 20.5566C16.3696 20.9062 16.1769 21.38 16.1769 21.8741Z" fill="white"/>
</svg>
