<svg width="111" height="111" viewBox="0 0 111 111" fill="none" xmlns="http://www.w3.org/2000/svg">
<g clip-path="url(#clip0_21_642)">
<path d="M78.429 56.6362C78.4643 56.5679 78.5061 56.4997 78.5348 56.4292C78.5656 56.3521 78.5854 56.2706 78.6096 56.1913C78.6295 56.1187 78.6559 56.046 78.6713 55.9733C78.6867 55.894 78.6911 55.8147 78.6977 55.7332C78.7065 55.6562 78.7176 55.5791 78.7176 55.502C78.7176 55.4249 78.7065 55.3478 78.6977 55.2707C78.6889 55.1915 78.6867 55.11 78.6713 55.0307C78.6559 54.9558 78.6317 54.8853 78.6096 54.8127C78.5854 54.7334 78.5656 54.6519 78.5348 54.5748C78.5061 54.5043 78.4665 54.436 78.429 54.3678C78.3916 54.2929 78.3564 54.218 78.3101 54.1475C78.2661 54.0793 78.2088 54.0176 78.1559 53.9515C78.1097 53.8965 78.0723 53.8348 78.0216 53.7819L48.0626 22.9486C47.1112 21.9729 45.5519 21.9487 44.574 22.8979C43.5984 23.8472 43.5742 25.4087 44.5234 26.3865L72.813 55.502L44.5234 84.6175C43.5742 85.5931 43.5962 87.1546 44.574 88.106C45.052 88.5729 45.673 88.8042 46.2919 88.8042C46.9108 88.8042 47.5781 88.5531 48.0626 88.0576L78.0216 57.2243C78.0723 57.1714 78.1097 57.1119 78.1559 57.0547C78.2088 56.9908 78.2661 56.9291 78.3101 56.8587C78.3564 56.7882 78.3916 56.7133 78.429 56.6384V56.6362Z" fill="#3CA3DF"/>
<path d="M55.5 4.93333C83.3821 4.93333 106.067 27.6179 106.067 55.5C106.067 83.3821 83.3821 106.067 55.5 106.067C27.6179 106.067 4.93333 83.3821 4.93333 55.5C4.93333 27.6179 27.6179 4.93333 55.5 4.93333ZM55.5 0C24.8473 0 0 24.8473 0 55.5C0 86.1527 24.8473 111 55.5 111C86.1527 111 111 86.1527 111 55.5C111 24.8473 86.1527 0 55.5 0Z" fill="#3CA3DF"/>
</g>
<defs>
<clipPath id="clip0_21_642">
<rect width="111" height="111" fill="white"/>
</clipPath>
</defs>
</svg>
